<svg
  xmlns="http://www.w3.org/2000/svg"
  viewBox="0 0 24 24"
  fill="currentColor"
  width="24px"
  height="24px"
>
  <path d="M11.999 3.429c.602 0 1.09.432 1.175 1.031l1.146 6.673 6.944-.595a1.22 1.22 0 0 1 1.274 1.489l-1.441 8.421a1.22 1.22 0 0 1-1.274 1.021l-7.296-.728-1.186 6.676a1.22 1.22 0 0 1-1.153.93c-.64 0-1.176-.485-1.175-1.093l.087-6.717-7.053.707a1.22 1.22 0 0 1-1.296-1.454l1.588-8.328a1.22 1.22 0 0 1 1.296-1.034l7.458.558 1.167-6.547a1.22 1.22 0 0 1 1.142-.828zM12 4.242l-.749 4.278-4.86.415 3.741 3.263-.978 5.645 4.733-.469-.732-4.251 4.781-.418-3.853-3.302.978-5.532z"/>
</svg>
